# xmcd
#
# Track frame offsets:
#	151
#	13233
#	29552
#	40942
#	57170
#	68588
#	82871
#	97255
#	108237
#	117653
#	128142
#	136712
#	148636
#
# Disc length: 2357 seconds
# Revision: 1
# Processed by: cddbd v1.5.2PL0 Copyright (c) Steve Scherf et al.
# Submitted via: dBpowerAMP V12.0
#
DISCID=b309330d
DTITLE=The Tennessee Mafia Jug Band - Poor Leroy's Almanack
DYEAR=2011
DGENRE=Country
TTITLE0=Uncle Eef
TTITLE1=Just a Friend
TTITLE2=Gathering Flowers From the Hillside
TTITLE3=Rabbit In the Log
TTITLE4=Whoa Mule
TTITLE5=Little But Loud
TTITLE6=Please Come Back Little Pal
TTITLE7=Nero (Played His Fiddle, While Rome Burned)
TTITLE8=Redwing
TTITLE9=Wrinkled, Crinkled, Wadded Dollar Bill
TTITLE10=Howdy In Hickman County
TTITLE11=Bicycle Wreck
TTITLE12=Glorybound Train
EXTD=
EXTT0=
EXTT1=
EXTT2=
EXTT3=
EXTT4=
EXTT5=
EXTT6=
EXTT7=
EXTT8=
EXTT9=
EXTT10=
EXTT11=
EXTT12=
PLAYORDER=
